<?xml version="1.0" standalone="no"?>
<!DOCTYPE svg PUBLIC "-//W3C//DTD SVG 20010904//EN"
 "http://www.w3.org/TR/2001/REC-SVG-20010904/DTD/svg10.dtd">
<svg version="1.0" xmlns="http://www.w3.org/2000/svg"
 width="559.000000pt" height="123.000000pt" viewBox="0 0 559.000000 123.000000"
 preserveAspectRatio="xMidYMid meet">

<g transform="translate(0.000000,123.000000) scale(0.100000,-0.100000)"
fill="#fff" stroke="none">
<path d="M1498 1159 c-14 -8 -18 -23 -18 -64 l0 -55 85 0 85 0 0 -320 0 -320
-100 0 -100 0 0 -60 0 -60 275 0 275 0 0 60 0 60 -90 0 -90 0 0 375 0 375 -26
10 c-33 13 -274 12 -296 -1z"/>
<path d="M919 1087 c-102 -38 -156 -98 -191 -210 -34 -106 -33 -292 1 -396 30
-89 72 -148 131 -181 36 -19 63 -25 137 -28 80 -4 98 -1 139 18 147 71 200
192 192 435 -4 101 -9 142 -26 184 -32 81 -66 127 -119 158 -40 23 -60 28
-138 30 -58 2 -103 -2 -126 -10z m144 -121 c33 -14 70 -50 80 -77 6 -19 -27
-52 -118 -121 -113 -84 -156 -111 -166 -101 -13 13 8 147 32 203 42 96 99 127
172 96z m117 -298 c0 -55 -28 -168 -50 -203 -12 -19 -40 -43 -66 -56 -62 -30
-112 -16 -154 43 -17 23 -30 44 -30 47 0 3 42 35 92 71 50 36 109 80 132 97
54 43 76 43 76 1z"/>
<path d="M81 1018 c0 -29 3 -61 7 -70 4 -9 79 -73 167 -141 88 -68 170 -136
183 -149 l23 -25 -58 -50 c-32 -27 -115 -94 -185 -147 -78 -59 -130 -106 -134
-120 -3 -12 -4 -43 -2 -69 l3 -46 170 130 c383 293 383 293 330 349 -25 26
-459 364 -492 384 -10 5 -13 -6 -12 -46z"/>
<path d="M2300 893 c-42 -22 -65 -43 -97 -90 -46 -70 -63 -131 -63 -233 0
-130 54 -226 156 -276 53 -26 58 -26 205 -22 174 5 179 7 179 90 l0 48 -57 -7
c-91 -12 -205 -9 -241 6 -35 15 -82 82 -82 118 0 17 9 21 61 27 34 3 129 6
212 6 l150 0 -6 68 c-13 138 -50 210 -134 259 -40 23 -61 28 -138 31 -84 4
-94 2 -145 -25z m218 -128 c20 -22 32 -45 32 -63 0 -27 -3 -30 -46 -36 -58 -8
-142 -8 -171 0 -49 13 -15 101 51 130 47 22 96 10 134 -31z"/>
<path d="M3015 908 c-56 -21 -102 -56 -120 -95 -27 -56 -31 -142 -9 -202 18
-50 18 -51 -6 -101 -27 -58 -29 -109 -6 -145 20 -31 20 -59 0 -76 -27 -22 -44
-66 -44 -113 0 -100 103 -159 275 -158 225 0 352 95 325 242 -8 44 -49 96 -87
111 -12 4 -83 15 -157 24 -164 19 -186 26 -186 59 0 14 5 28 12 32 6 4 62 10
125 14 106 7 116 9 151 37 57 46 84 107 79 173 -2 30 -6 62 -8 70 -3 11 7 16
36 20 l40 5 3 58 3 57 -198 -1 c-114 0 -211 -5 -228 -11z m180 -124 c27 -30
34 -88 14 -127 -32 -63 -107 -76 -161 -28 -28 25 -33 36 -33 74 0 69 40 105
118 106 29 1 44 -5 62 -25z m51 -529 c34 -22 30 -70 -9 -99 -22 -17 -46 -22
-110 -24 -100 -3 -131 9 -135 55 -4 44 12 71 51 83 46 14 173 5 203 -15z"/>
<path d="M3664 913 c-91 -4 -94 -7 -94 -84 l0 -37 145 -7 c80 -4 145 -11 145
-16 0 -5 -57 -84 -127 -177 -144 -189 -163 -221 -163 -274 l0 -38 260 0 260 0
0 65 0 65 -132 0 c-73 0 -139 4 -145 8 -9 6 12 40 71 118 191 248 200 261 204
325 l4 59 -173 -2 c-96 -1 -211 -4 -255 -5z"/>
<path d="M4272 663 c4 -284 7 -301 67 -358 27 -25 41 -30 96 -33 90 -6 126 3
176 43 24 19 47 35 52 35 4 0 7 -16 7 -35 l0 -35 65 0 65 0 0 319 0 320 -72
-6 c-40 -3 -75 -8 -78 -10 -2 -2 -7 -97 -10 -210 l-5 -207 -53 -43 c-59 -48
-98 -55 -127 -23 -22 24 -33 151 -34 373 l-1 127 -76 0 -76 0 4 -257z"/>
<path d="M4990 856 l0 -64 145 -7 145 -7 -23 -32 c-12 -17 -70 -94 -130 -171
-115 -150 -163 -232 -153 -263 9 -26 73 -32 327 -32 l199 0 0 65 0 65 -132 0
c-73 0 -139 4 -147 9 -11 7 15 46 113 172 69 90 133 178 141 196 8 17 15 54
15 82 l0 51 -250 0 -250 0 0 -64z"/>
<path d="M4960 170 l0 -50 270 0 270 0 0 50 0 50 -270 0 -270 0 0 -50z"/>
</g>
</svg>
